# xmcd
#
# Track frame offsets: 
#        182
#        10475
#        20702
#        31530
#        44105
#        54632
#        65465
#        79492
#        92082
#        105435
#        115030
#        127575
#        139170
#        150670
#        162202
#        173582
#        185525
#        197175
#        207640
#        220357
#
# Disc length: 3092 seconds
#
# Revision: 1
# Processed by: cddbd v1.5.2PL0 Copyright (c) Steve Scherf et al.
# Submitted via: ExactAudioCopyFreeDBPlugin 1.0
#
DISCID=180c1214
DTITLE=Barbara Lewis - Hello Stranger:  The Best of Barbara Lewis
DYEAR=1994
DGENRE=Rhythm and Blues
TTITLE0=My Heart Went Do Dat Da
TTITLE1=My Mama Told Me
TTITLE2=Puppy Love
TTITLE3=Hello Stranger
TTITLE4=Think a Little Sugar
TTITLE5=Straighten Up Your Heart
TTITLE6=Snap Your Fingers
TTITLE7=How Can I Say Goodbye
TTITLE8=Spend a Little Time
TTITLE9=Someday We're Gonna Love Again
TTITLE10=Pushin' a Good Thing Too Far
TTITLE11=Baby, I'm Yours
TTITLE12=Make Me Your Baby
TTITLE13=Don't Forget About Me
TTITLE14=Make Me Belong to You
TTITLE15=Baby What Do You Want Me to Do
TTITLE16=I Remember the Feeling
TTITLE17=I'll Make Him Love Me
TTITLE18=Thankful for What I Got
TTITLE19=Sho-Nuff (It's Got to Be Your Love)
EXTD=
EXTT0=
EXTT1=
EXTT2=
EXTT3=
EXTT4=
EXTT5=
EXTT6=
EXTT7=
EXTT8=
EXTT9=
EXTT10=
EXTT11=
EXTT12=
EXTT13=
EXTT14=
EXTT15=
EXTT16=
EXTT17=
EXTT18=
EXTT19=
PLAYORDER=
